<svg width="64" height="64" viewBox="0 0 64 64" xmlns="http://www.w3.org/2000/svg" aria-hidden="true">
  <path d="M32 14C19.6 14 9.5 23.5 9.5 35.4C9.5 47.4 19.6 57 32 57C44.4 57 54.5 47.4 54.5 35.4C54.5 23.5 44.4 14 32 14Z" fill="#FF6168"/>
  <path d="M22 12.4C22 9.6 24.2 7.4 27 7.4C29.1 7.4 31 8.7 31.7 10.7C32.4 8.7 34.3 7.4 36.4 7.4C39.2 7.4 41.4 9.6 41.4 12.4C41.4 14.4 40.2 16.2 38.4 17L31.7 20.1L25 17C23.2 16.2 22 14.4 22 12.4Z" fill="#79C46E"/>
  <circle cx="32" cy="35.5" r="22" fill="none" stroke="#FF7B80" stroke-width="2"/>
</svg>
